<?xml version="1.0" encoding="utf-8"?>

<svg version="1.1" xmlns="http://www.w3.org/2000/svg" xmlns:xlink="http://www.w3.org/1999/xlink" x="0px" y="0px" viewBox="0 0 907.4 276.6" style="enable-background:new 0 0 907.4 276.6;" xml:space="preserve">

<g id="icone">
&#x9;<path class="st0" d="M106.5,26.7c-0.6-0.4-1.3-0.8-1.9-1.1c-17-10.8-42.3-14.8-49.6,4.2c13.5-0.6,25.2,5,36.6,14.2&#xA;&#x9;&#x9;c16.7,13.5,29,29.4,36.4,44.5c5.8,12,15.4,40.2,0.1,49.3c-7.4,4.5-17.9,1.5-26.7-5.2c20.5,25.4,66.8,32.2,62.2-11.8&#xA;&#x9;&#x9;c-3.9-37.9-39-79.1-57-94.1H106.5z"></path>
&#x9;<path class="st1" d="M160,52.6c17.9,5,19.3,20.9,10.6,44.3c13-10.8,21.7-32.4,22.4-51.4c0.6-14.1-4.8-25.1-23.9-28.7&#xA;&#x9;&#x9;c-9.5-1.8-21.1-0.8-34.2,2.3C85.9,31.5,26.5,73.2,5.8,120.9c-3.1,6.7-5,13.7-5.6,20.5c-2.5,29.5,23.7,40.4,51,33.1&#xA;&#x9;&#x9;c-25.7-3.6-31.4-25.7-13.5-54.4C57.3,88.5,121.6,41.7,160,52.6L160,52.6z"></path>
&#x9;<path class="st2" d="M176.2,147.5c0.8,13.6-0.1,25.8-6.5,34.2c-14,19.3-43.1,8.6-59.8-1.3c-33.8-19.7-79-76.4-89.5-115.6&#xA;&#x9;&#x9;C15.2,45.3,9.5,12.1,33,2.4c25.6-10.3,62.4,15.1,75.8,26.1c-19.6-15-55.8-21.1-55.6,13.7c0.1,30.5,19.2,65.9,42.5,91.1&#xA;&#x9;&#x9;C114,153.2,161,190.2,176.2,147.5L176.2,147.5z"></path>
&#x9;<path class="st3" d="M41.6,114.1c-12.6,25.2,2,41.1,28.9,32.6c6,6.5,9.8,10.7,15.9,16c-9.2,3.2-19.7,9.5-37,11.6&#xA;&#x9;&#x9;c-25.6-3.6-29.8-25.6-11.8-54.2C38.7,118.1,40.1,116.1,41.6,114.1L41.6,114.1z M148.3,51.6c13.2,2.9,11.7,23.8,3.9,34&#xA;&#x9;&#x9;c4.1,8,6.9,14.4,8.9,22.9l9.3-11.6c8.9-23.4,7.4-39.3-10.4-44.3c-3.7-1.1-7.8-1.5-11.8-1.7C148.3,51.5,148.3,51.6,148.3,51.6&#xA;&#x9;&#x9;L148.3,51.6z"></path>
</g>
<g id="lector">
&#x9;<path class="st4" d="M244.2,26.4c0,34.6,0,69.2,0,104c0.3,6,1.4,12.3,3.6,18.8c2.2,7.4,5.2,13,8.8,17.2&#xA;&#x9;&#x9;c4.8,5.8,11.1,10.3,18.4,13.2c6.2,2.4,13.6,3.8,22.1,4.2c1.3,0.3,2.4,0.3,3.8,0l1.4-0.1h4.1c9.2-1.7,15.4-3.2,18.7-4.7&#xA;&#x9;&#x9;c1.9-1,2.9-2,3.4-3.4c0.4-1,0.3-2.5-0.4-4.6l-0.5-5.5c-0.8-4.5-1.7-7.9-2.7-9.7c-1.5-3.2-4.1-4.7-7.6-5l-13,1.5H303&#xA;&#x9;&#x9;c-2.7,0-4.6-0.1-5.7-0.4c-1.9-0.3-3.8-0.8-5.7-1.7c-4.3-2.2-7.9-5.7-10.6-10.6c-2.3-4.6-3.4-9.4-3.4-14.6V42.5&#xA;&#x9;&#x9;c0-2.5-0.3-4.5-0.6-5.7c-1.5-4.6-4.2-7.8-8.3-9.2c-2.3-0.8-6.4-1.1-12.3-1.1H244.2z M599.7,26.4c-0.1,9.7-0.4,19.6-0.6,29.5h-21.6&#xA;&#x9;&#x9;v3.4c-0.3,6.1,0.1,10.4,0.8,13.2c1.3,4.5,4.3,7.4,8.9,8.5c1.5,0.4,5,0.5,10,0.5h1.9v46.8c0,6,0.3,10.8,0.4,14&#xA;&#x9;&#x9;c0.3,5.2,0.8,9.5,1.7,13.2c4.6,17.2,16,26.5,34.2,28.1l2.2,0.1c1.4,0.3,2.5,0.3,3.6,0l6.5-0.5c5.2-0.6,9.2-1.1,12.1-1.7&#xA;&#x9;&#x9;c10-2.2,18.7-5.6,25.7-10.2c-0.4-1.7-1.1-3.8-2.3-6.5l-0.5-1.1c-1.7-4.3-3.4-7.2-4.8-9c-2.2-2-5.2-3.2-9.3-3.3&#xA;&#x9;&#x9;c-1.8,0-4.3,0.3-7.4,1.1c-3.8,1-7.1,1.8-9.7,2c-2.7,0.1-5-0.1-6.6-1c-7.1-2.2-10.6-9.4-10.6-21.4V81.6h45.5v-2.9&#xA;&#x9;&#x9;c0.3-7.1-0.4-12-1.4-14.6c-1.9-3.8-4.6-6.1-8-7c-1.9-0.9-5.5-1.3-10.3-1.3h-25.8V40.7c0-1.9-0.1-3.4-0.4-4.6&#xA;&#x9;&#x9;c-0.9-3.1-2.7-5.3-5.2-7.1c-2.7-1.8-5.6-2.5-8.8-2.5H599.7z M362.2,129.2c26.6,0,53,0,79.6,0c1.9,0,3.2-0.1,3.8-0.8&#xA;&#x9;&#x9;c0.8-0.4,1.3-3.2,1.9-8.4l0.4-1.1c1.4-13,0.9-23.5-1.8-31.5c-1.8-5.2-3.6-9-5.5-12c-3.4-5.5-7.9-9.8-13.4-13.2&#xA;&#x9;&#x9;c-5.5-3.4-11.4-5.8-18.2-7.1l-14.9-1.8l-5.2,0.4c-10.6,0.4-20.2,3.1-29.2,8c-9,5-16.4,11.8-22,20.7c-5.5,9-8.8,19.3-9.8,31.3&#xA;&#x9;&#x9;c-0.9,11.8,0.8,23,5,33.4c4.5,11.2,11.1,19.7,20.1,25.7c9.5,6.2,21.1,9.9,34.6,10.9c12.5,1,24.5-0.5,36.6-4.3&#xA;&#x9;&#x9;c6.1-1.7,11.8-4.3,16.9-7.8c3.1-1.7,4.8-3.1,5.2-4.1c0.6-1,0-2.9-1.4-5.6l-3.6-6.4c-1.4-2-3.6-3.8-6.1-5.1&#xA;&#x9;&#x9;c-2.5-1.1-5.1-1.7-7.6-1.5c-1.5,0.3-4.7,1.1-9.4,2.8c-3.1,1.3-5.3,2-6.5,2.3c-8.8,2.2-17.2,2.5-24.7,0.9c-9.2-1.7-15.9-6.1-20-12.8&#xA;&#x9;&#x9;c-1.5-2.3-2.9-5.7-4.1-10L362.2,129.2z M546.6,108.6c2.2-0.3,5-0.8,8.6-1.7l2.3-0.6c3.1-0.4,5.2-0.9,6.5-1.4&#xA;&#x9;&#x9;c2.3-0.8,4.2-1.8,5.7-3.2c4.5-4.1,5.6-9.5,3.7-16.5c-1.7-5.7-4.7-10.8-9.2-15.5c-5.2-5.3-11.1-9.4-18.1-12.1&#xA;&#x9;&#x9;c-6.1-2.3-13.2-3.6-21.1-3.9l-5.2-0.4l-15,1.8c-7,1.5-13.5,4.1-19.6,7.5c-6.1,3.7-11.3,8.1-16,13.5c-5.5,6.9-9.4,15.1-11.8,24.7&#xA;&#x9;&#x9;c-2.2,9.7-2.8,19.5-1.7,29.2c1.1,9.8,3.9,18.6,8.4,26.2c5.1,8.6,12.7,15.5,22.5,20.7c9.5,4.6,20.6,6.9,32.9,7.1&#xA;&#x9;&#x9;c11.4,0.1,22.6-1.5,33.3-5.1c5.1-1.8,10.3-4.3,15.5-7.5c2.8-1.7,4.6-3.1,5.3-4.1c1-1.3,0.3-3.7-2.2-7.1v-0.4&#xA;&#x9;&#x9;c-2.3-4.5-4.3-7.6-6.1-9.4c-2.7-2.5-6.1-3.8-10-3.3c-2.2,0.1-5.5,1.1-10,3.1l-3.9,1.7c-5.7,2-11.2,2.9-16.3,2.7&#xA;&#x9;&#x9;c-7,0-13.1-1.5-18.3-4.3c-6-3.3-10.6-7.9-13.6-13.9c-2.3-4.8-3.7-10.7-3.9-17.3c0-1.1,0-2.4,0.3-3.8l0.3-1.4&#xA;&#x9;&#x9;c1.4-13.1,6.7-22,16-27.2c5-2.7,10.7-3.9,16.9-3.7c6.4,0.1,11.4,2,15.5,5.7c2.7,2.3,4.7,5.2,6.1,8.6&#xA;&#x9;&#x9;C546,100.8,546.6,104.5,546.6,108.6L546.6,108.6z M743.6,53.7c-3.8,0.1-7.8,0.5-11.6,0.8c-14.5,2.9-26.3,8.9-35.4,18.2&#xA;&#x9;&#x9;c-8,8.1-13.5,18.1-16.2,29.9c-2.8,11.7-2.7,23.3,0.1,34.5c3.2,11.8,9,21.6,17.5,29.5c10.9,10.3,24.8,16,41.5,17.3l5.1,0.1l8.4-0.5&#xA;&#x9;&#x9;c4.7-0.4,9.5-1.4,14.4-2.9c4.8-1.5,9.3-3.4,13.4-6c11.7-6.9,20.1-16.8,25.6-29.5c4.8-12.1,6.4-24.8,4.1-38.2&#xA;&#x9;&#x9;c-2.2-13.4-7.9-24.8-17.3-34.3c-7.4-7.9-16.8-13.4-28.2-16.4c-3.7-1-8.8-1.9-15.3-2.5h-3.1C745.8,53.4,744.9,53.4,743.6,53.7&#xA;&#x9;&#x9;L743.6,53.7z M821.9,54.7c0,42.2,0,84.4,0,126.7h34v-61c0-6.2,0.3-10.9,0.6-14c0.9-5,3.1-9.3,6.2-13c5.5-5.8,11.8-8.5,19.5-8&#xA;&#x9;&#x9;c1.3,0,2.9,0.4,5.2,0.8c4.6,0.9,7.9,1,9.8,0.6c3.4-0.4,5.8-2.3,7.1-5.7l2.7-14.9c0.5-2.4,0.5-4.2,0-5.2c-0.6-0.9-1.8-1.8-3.6-2.5&#xA;&#x9;&#x9;c-1.7-0.8-3.2-1.4-4.5-1.7c-3.7-1.1-7.9-1.8-12.6-2c-4.8-0.3-8.9,0.3-12.3,1.1c-3.9,1.3-7.4,2.8-10,5c-1.5,1.1-3.8,3.8-6.9,7.6&#xA;&#x9;&#x9;l-1.3,1.3c0-2.2-0.1-3.9-0.5-5.2c-1.4-4.5-4.2-7.4-8-8.6c-2.5-0.8-6.5-1.1-12.1-1.1H821.9L821.9,54.7z M416.7,103.5&#xA;&#x9;&#x9;c-17.8,0-35.5,0-53.3,0c1.4-6.7,4.5-12.1,9.4-16.2c5-3.9,10.9-6,17.8-6.1s12.5,0.9,16.7,2.8c5.3,2.4,8.5,6.7,9.4,12.6&#xA;&#x9;&#x9;c0.4,1.9,0.4,3.6,0.4,4.8L416.7,103.5z M743.6,83.9c1.3-0.1,2.8-0.1,4.7,0c2,0.3,3.7,0.5,4.8,0.9c7.9,1.5,14,5.5,18.8,11.8&#xA;&#x9;&#x9;c4.6,5.8,7.1,12.7,7.4,20.7c0.4,7.9-1.4,15.1-5.7,21.5c-2.9,4.8-7,8.4-12,10.7c-4.2,2-9.4,3.4-15.5,3.9c-1.3,0-3.3-0.1-6-0.5h-0.6&#xA;&#x9;&#x9;c-8.8-1-15.8-4.7-21.1-11.3c-5.5-6.6-7.9-14.4-7.8-23.4c0-1.8,0.1-4.1,0.6-6.5c0.4-2.4,0.9-4.6,1.7-6.4c4.1-10,10.8-16.7,20.3-19.7&#xA;&#x9;&#x9;c2.3-0.8,4.6-1.3,7.1-1.4L743.6,83.9z"></path>
</g>
<g id="tecnologia">
&#x9;<path class="st5" d="M452.5,254.2c0,1.7,0.3,2.8,0.8,3.2c0.5,0.6,1.3,0.9,2.7,0.9c0.5,0,1-0.1,1.7-0.1c0.5,0,1-0.1,1.7-0.3v6.7&#xA;&#x9;&#x9;c-1,0.1-1.9,0.4-3.1,0.4c-1.1,0.1-2.4,0.1-3.7,0.1c-2.8,0-4.7-0.6-6.1-1.9c-1.3-1.1-1.9-3.2-1.9-6v-20.3h-4.5v-6.5h4.5v-11.1h8.1&#xA;&#x9;&#x9;v10.9h6.7v6.6h-6.7v17.3H452.5z M486.1,243h12.5c0-2.4-0.6-4.1-1.7-5.3c-1.1-1.3-2.7-1.9-4.6-1.9c-1.8,0-3.3,0.6-4.3,1.9&#xA;&#x9;&#x9;C486.9,238.8,486.2,240.6,486.1,243L486.1,243z M506.1,257.8c-1.3,2.4-3.1,4.2-5.5,5.5c-2.3,1.3-5.1,1.9-8.1,1.9&#xA;&#x9;&#x9;c-4.5,0-8.1-1.7-10.7-4.7c-2.5-3.1-3.8-7.4-3.8-13c0-5.6,1.3-10,3.8-13.1c2.5-3.2,6-4.7,10.6-4.7c4.5,0,7.9,1.7,10.4,4.6&#xA;&#x9;&#x9;c2.4,3.1,3.7,7.2,3.7,12.7c0,0.3-0.1,0.5-0.1,0.9c0,0.4,0,0.8,0,0.8l-20.5,0.3c0,3.2,0.6,5.6,1.9,7.1c1.1,1.7,2.9,2.4,5.3,2.4&#xA;&#x9;&#x9;c1.4,0,2.7-0.4,3.8-1c1-0.6,2.2-1.8,3.1-3.3L506.1,257.8z M547.8,253.1l6.2,3.3c-1.1,2.9-2.8,5-5.2,6.5c-2.2,1.5-5,2.3-8.3,2.3&#xA;&#x9;&#x9;c-4.7,0-8.4-1.5-10.9-4.6c-2.5-2.9-3.7-7.2-3.7-13.1c0-5.6,1.3-9.9,3.9-13c2.5-3.2,6.1-4.7,10.7-4.7c3.3,0,6,0.8,8.3,2.3&#xA;&#x9;&#x9;c2.3,1.4,3.8,3.7,4.8,6.5l-6.7,2.9c-0.6-1.9-1.4-3.2-2.3-3.9c-0.9-0.8-2-1.1-3.4-1.1c-2.5,0-4.2,0.8-5.5,2.7&#xA;&#x9;&#x9;c-1.1,1.9-1.7,4.8-1.7,8.8c0,3.4,0.5,6.1,1.7,7.9c1,1.7,2.8,2.5,5,2.5c1.7,0,3.1-0.4,4.2-1.3C546,256.2,546.9,254.8,547.8,253.1&#xA;&#x9;&#x9;L547.8,253.1z M575.7,264.4v-34h7.4v4.1c2.2-1.7,3.9-3.1,5.6-3.7c1.7-0.8,3.3-1.1,5-1.1c3.2,0,5.6,1,7.1,2.8&#xA;&#x9;&#x9;c1.7,1.9,2.4,4.6,2.4,8.4v23.5h-8.1v-22c0-2.3-0.1-3.8-0.8-4.7c-0.6-1-1.7-1.4-3.1-1.4c-1.1,0-2.4,0.3-3.7,0.9&#xA;&#x9;&#x9;c-1.1,0.5-2.5,1.5-3.9,2.8v24.4H575.7L575.7,264.4z M633.1,247.3c0,3.7,0.5,6.4,1.5,8.1c1.3,1.8,2.8,2.8,5,2.8c2,0,3.8-1,4.8-2.8&#xA;&#x9;&#x9;c1-1.8,1.7-4.5,1.7-8.1c0-3.6-0.6-6.2-1.7-8c-1-1.9-2.7-2.7-4.8-2.7c-2.2,0-3.8,0.9-5,2.7C633.6,241.1,633.1,243.9,633.1,247.3&#xA;&#x9;&#x9;L633.1,247.3z M625,247.5c0-5.7,1.4-10,3.8-13.1c2.7-3.2,6.1-4.7,10.8-4.7c4.6,0,8.1,1.7,10.7,4.7c2.5,3.1,3.9,7.4,3.9,13.1&#xA;&#x9;&#x9;c0,5.5-1.4,9.8-3.9,12.8c-2.5,3.3-6.1,4.8-10.7,4.8c-4.7,0-8.1-1.7-10.8-4.8C626.2,257.3,625,252.9,625,247.5L625,247.5z&#xA;&#x9;&#x9; M676.1,264.4v-47.2h8v47.2H676.1z M714.1,247.3c0,3.7,0.5,6.4,1.7,8.1c1,1.8,2.5,2.8,4.7,2.8c2.2,0,3.8-1,4.8-2.8&#xA;&#x9;&#x9;c1-1.8,1.7-4.5,1.7-8.1c0-3.6-0.6-6.2-1.7-8c-1-1.9-2.7-2.7-4.8-2.7c-2.2,0-3.7,0.9-4.7,2.7C714.6,241.1,714.1,243.9,714.1,247.3&#xA;&#x9;&#x9;L714.1,247.3z M706.1,247.5c0-5.7,1.1-10,3.8-13.1c2.5-3.2,6.1-4.7,10.7-4.7s8.1,1.7,10.7,4.7c2.7,3.1,3.9,7.4,3.9,13.1&#xA;&#x9;&#x9;c0,5.5-1.3,9.8-3.9,12.8c-2.5,3.3-6.1,4.8-10.7,4.8s-8.1-1.7-10.7-4.8C707.2,257.3,706.1,252.9,706.1,247.5L706.1,247.5z&#xA;&#x9;&#x9; M765,263.7c-1.3,0.6-2,1.3-2.7,1.7c-0.5,0.6-0.8,1.3-0.8,1.9c0,1,0.6,2,1.8,2.7c1.1,0.8,2.8,1,4.7,1c2.8,0,5-0.4,6.5-1.1&#xA;&#x9;&#x9;c1.7-0.8,2.5-1.8,2.5-3.1c0-0.9-0.4-1.5-1.1-1.9c-0.8-0.4-1.8-0.8-3.4-0.8L765,263.7z M763.2,241.5c0,1.7,0.4,3.1,1.5,3.9&#xA;&#x9;&#x9;c0.9,0.9,2.3,1.4,3.9,1.4c1.8,0,3.1-0.5,4.1-1.4c1-1,1.5-2.3,1.5-4.1c0-1.7-0.6-3.1-1.7-4.1c-1-1-2.4-1.5-4.1-1.5s-2.9,0.5-3.8,1.5&#xA;&#x9;&#x9;C763.6,238.4,763.2,239.8,763.2,241.5L763.2,241.5z M759.8,262.1c-1.7-0.9-2.8-1.7-3.6-2.5c-0.6-0.8-0.9-1.7-0.9-2.7&#xA;&#x9;&#x9;c0-1.3,0.4-2.5,1.3-3.7c0.9-1,2-2,3.8-2.8c-1.7-1-2.8-2.3-3.7-3.7c-0.8-1.5-1.1-3.3-1.1-5.2c0-3.7,1.1-6.4,3.6-8.6&#xA;&#x9;&#x9;c2.3-2.2,5.6-3.3,9.4-3.3c1.5,0,3.2,0.3,4.5,0.6c1.4,0.6,2.7,1.3,4.1,2.3c0.8-1,1.7-1.9,2.8-2.4c1-0.6,2.2-0.9,3.4-0.9&#xA;&#x9;&#x9;c0.4,0,0.6,0,0.6,0c0.3,0,0.4,0.1,0.6,0.1v6c-0.1,0-0.1,0-0.3,0c-0.6-0.1-1.1-0.1-1.4-0.1c-0.6,0-1.1,0.1-1.7,0.1&#xA;&#x9;&#x9;c-0.5,0.1-0.9,0.4-1.3,0.6c0.5,0.8,0.8,1.7,1.1,2.7c0.1,1,0.4,2.3,0.4,3.4c0,3.3-1.1,6-3.4,8c-2.3,1.9-5.5,2.8-9.4,2.8&#xA;&#x9;&#x9;c-0.8,0-1.4,0-2-0.1c-0.5,0-1.1-0.1-1.7-0.4c-0.8,0.4-1.3,0.8-1.7,1.1c-0.4,0.4-0.5,0.8-0.5,1.3c0,1.1,2.2,2,6.5,2.3&#xA;&#x9;&#x9;c1,0.1,1.9,0.1,2.4,0.1c5,0.5,8.3,1.3,9.9,2.4c1.8,1.3,2.5,3.6,2.5,6.5c0,3.4-1.3,6-4.1,7.9c-2.8,1.8-6.6,2.7-11.8,2.7&#xA;&#x9;&#x9;c-4.7,0-8.4-0.8-10.8-2c-2.4-1.5-3.7-3.7-3.7-6.4c0-1.5,0.6-2.8,1.4-3.8C756.1,263.5,757.6,262.7,759.8,262.1L759.8,262.1z&#xA;&#x9;&#x9; M805.3,224.8v-7.8h8v7.8H805.3z M805.3,264.4v-34h8v34H805.3z M854.5,247.8c-3.9,0.5-6.7,1.4-8.5,2.5c-1.8,1.1-2.7,2.7-2.7,4.7&#xA;&#x9;&#x9;c0,1.1,0.3,2,1,2.7c0.5,0.6,1.4,0.9,2.7,0.9c1.3,0,2.5-0.1,3.7-0.8c1.3-0.6,2.5-1.5,3.8-2.7V247.8z M855.4,264.4l-0.8-2.9&#xA;&#x9;&#x9;c-1.4,1.1-3.1,2-4.7,2.5c-1.7,0.6-3.6,0.8-5.3,0.8c-2.8,0-5.1-0.8-6.6-2.4c-1.8-1.5-2.5-3.8-2.5-6.6c0-3.7,1.5-6.7,4.7-8.8&#xA;&#x9;&#x9;c3.1-2.2,8-3.7,14.6-4.5v-2.7c0-1.3-0.4-2.3-1.3-3.1c-0.8-0.6-2-0.9-3.6-0.9c-1.5,0-2.9,0.3-4.1,0.9c-1.3,0.6-2.4,1.8-3.3,3.1&#xA;&#x9;&#x9;l-5.5-3.4c1.4-2.3,3.2-3.9,5.3-5c2.3-1.1,4.7-1.7,7.8-1.7c3.9,0,7,0.9,9.2,2.7s3.3,4.3,3.3,7.4v20.1c0,0.5,0,1.1,0.1,1.8&#xA;&#x9;&#x9;c0.1,0.8,0.3,1.8,0.4,2.7H855.4z"></path>
</g>
</svg>